<svg xmlns="http://www.w3.org/2000/svg"  viewBox="0 0 100 100" width="50px" height="50px"><circle cx="78" cy="14" r="1" fill="#f1bc19"/><circle cx="50" cy="50" r="38" fill="#f9dbd2"/><circle cx="84" cy="16" r="4" fill="#f1bc19"/><circle cx="14" cy="26" r="2" fill="#ee3e54"/><circle cx="78" cy="77" r="2" fill="#fbcd59"/><circle cx="17" cy="78" r="4" fill="#fbcd59"/><circle cx="24" cy="83" r="2" fill="#ee3e54"/><circle cx="66.483" cy="78.517" r="2.483" fill="#fff"/><circle cx="16" cy="48" r="1" fill="#fff"/><circle cx="86" cy="31" r="1" fill="#f1bc19"/><circle cx="80" cy="66" r="2" fill="#fff"/><path fill="#fff" d="M80,33c-0.552,0-1,0.448-1,1s0.448,1,1,1s1-0.448,1-1S80.552,33,80,33z"/><path fill="#00a5a5" d="M35,72.3c-4,0-7.3-3.3-7.3-7.3V35c0-4,3.3-7.3,7.3-7.3h30c4,0,7.3,3.3,7.3,7.3v30	c0,4-3.3,7.3-7.3,7.3H35z"/><path fill="#472b29" d="M65,28.4c3.6,0,6.6,3,6.6,6.6v30c0,3.6-3,6.6-6.6,6.6H35c-3.6,0-6.6-3-6.6-6.6V35	c0-3.6,3-6.6,6.6-6.6H65 M65,27H35c-4.4,0-8,3.6-8,8v30c0,4.4,3.6,8,8,8h30c4.4,0,8-3.6,8-8V35C73,30.6,69.4,27,65,27L65,27z"/><path fill="#fdfcee" d="M68.812,48.213v1.8v14.3c0,2.5-2,4.5-4.5,4.5h-28c-2.5,0-4.5-2-4.5-4.5v-28c0-2.5,2-4.5,4.5-4.5h25.4	h2.6c2.5,0,4.5,2,4.5,4.5v3.4v2v1v1.1v2.9V48.213"/><path fill="#472b29" d="M68.5,47.4c-0.3,0-0.5-0.2-0.5-0.5V43c0-0.3,0.2-0.5,0.5-0.5S69,42.7,69,43v3.9	C69,47.2,68.8,47.4,68.5,47.4z M68.5,40.5c-0.3,0-0.5-0.2-0.5-0.5v-2c0-0.3,0.2-0.5,0.5-0.5S69,37.7,69,38v2	C69,40.3,68.8,40.5,68.5,40.5z"/><path fill="#472b29" d="M64,69H36c-2.8,0-5-2.2-5-5V36c0-2.8,2.2-5,5-5h25.4c0.3,0,0.5,0.2,0.5,0.5S61.7,32,61.4,32H36	c-2.2,0-4,1.8-4,4v28c0,2.2,1.8,4,4,4h28c2.2,0,4-1.8,4-4V49.6c0-0.3,0.2-0.5,0.5-0.5s0.5,0.2,0.5,0.5V64C69,66.8,66.8,69,64,69z"/><g><path fill="#00a5a5" d="M60.279,43.434l2.26-1.883c0.419-0.349,0.172-1.03-0.373-1.03h-6.549l-5.53,13.272L43.961,40.52 h-4.662h-2.09c-0.519,0-0.779,0.628-0.412,0.995l2.502,2.502v1.748v12.239L36.968,61.5h6.993l-2.331-3.497V46.93l5.245,14.57h2.914 l5.828-14.57v12.239L53.286,61.5h9.325l-2.331-2.331V43.434z"/><path fill="#472b29" d="M62.61,62h-9.325c-0.202,0-0.385-0.122-0.462-0.309c-0.078-0.187-0.035-0.402,0.108-0.545 l2.185-2.185v-9.436l-4.863,12.159C50.177,61.875,49.994,62,49.789,62h-2.914c-0.211,0-0.399-0.132-0.47-0.331L42.13,49.795v8.057 l2.247,3.371c0.102,0.153,0.112,0.351,0.025,0.513S44.146,62,43.961,62h-6.993c-0.185,0-0.354-0.102-0.441-0.264 s-0.077-0.36,0.025-0.513l2.247-3.371V44.224l-2.355-2.355c-0.311-0.311-0.403-0.774-0.235-1.18c0.168-0.406,0.561-0.668,1-0.668 h6.752c0.195,0,0.372,0.113,0.454,0.291l5.648,12.238l5.092-12.221c0.078-0.186,0.26-0.308,0.461-0.308h6.549 c0.461,0,0.861,0.28,1.018,0.714c0.157,0.434,0.03,0.905-0.325,1.201l-2.081,1.733v15.294l2.185,2.185 c0.143,0.143,0.186,0.358,0.108,0.545C62.995,61.878,62.813,62,62.61,62z M54.493,61h6.91l-1.478-1.478 c-0.094-0.094-0.146-0.221-0.146-0.354V43.434c0-0.148,0.066-0.289,0.18-0.384l2.261-1.883l-0.053-0.146H55.95l-5.402,12.965 c-0.076,0.183-0.253,0.304-0.452,0.308c-0.2-0.013-0.38-0.111-0.463-0.291L43.641,41.02h-6.432l-0.059,0.142l2.502,2.502 c0.094,0.094,0.146,0.221,0.146,0.354v13.987c0,0.099-0.029,0.195-0.084,0.277L37.902,61h5.125l-1.813-2.719 c-0.055-0.082-0.084-0.179-0.084-0.277V46.93c0-0.243,0.175-0.451,0.414-0.493c0.233-0.041,0.474,0.094,0.556,0.323L47.227,61 h2.224l5.702-14.255c0.089-0.223,0.321-0.349,0.559-0.306c0.235,0.045,0.405,0.251,0.405,0.491v12.239 c0,0.133-0.053,0.26-0.146,0.354L54.493,61z"/></g></svg>